<mxfile host="app.diagrams.net" agent="Mozilla/5.0 (Windows NT 10.0; Win64; x64) AppleWebKit/537.36 (KHTML, like Gecko) Chrome/129.0.0.0 Safari/537.36" version="24.7.17">
  <diagram name="1 oldal" id="IYyL4PXdDGExNCNDXlfg">
    <mxGraphModel dx="2501" dy="780" grid="1" gridSize="10" guides="1" tooltips="1" connect="1" arrows="1" fold="1" page="1" pageScale="1" pageWidth="827" pageHeight="1169" math="0" shadow="0">
      <root>
        <mxCell id="0" />
        <mxCell id="1" parent="0" />
        <mxCell id="Dero5Fjb5s4j1B3LeUZW-6" style="edgeStyle=orthogonalEdgeStyle;rounded=0;orthogonalLoop=1;jettySize=auto;html=1;" parent="1" source="Dero5Fjb5s4j1B3LeUZW-1" target="Dero5Fjb5s4j1B3LeUZW-2" edge="1">
          <mxGeometry relative="1" as="geometry" />
        </mxCell>
        <mxCell id="Dero5Fjb5s4j1B3LeUZW-1" value="Start" style="ellipse;whiteSpace=wrap;html=1;" parent="1" vertex="1">
          <mxGeometry x="150" y="30" width="120" height="80" as="geometry" />
        </mxCell>
        <mxCell id="qOB-2drd1Dhv3abfUxcW-3" style="edgeStyle=orthogonalEdgeStyle;rounded=0;orthogonalLoop=1;jettySize=auto;html=1;" edge="1" parent="1" source="Dero5Fjb5s4j1B3LeUZW-2" target="qOB-2drd1Dhv3abfUxcW-1">
          <mxGeometry relative="1" as="geometry" />
        </mxCell>
        <mxCell id="Dero5Fjb5s4j1B3LeUZW-2" value="k=0" style="rounded=0;whiteSpace=wrap;html=1;" parent="1" vertex="1">
          <mxGeometry x="150" y="140" width="120" height="60" as="geometry" />
        </mxCell>
        <mxCell id="qOB-2drd1Dhv3abfUxcW-5" style="edgeStyle=orthogonalEdgeStyle;rounded=0;orthogonalLoop=1;jettySize=auto;html=1;" edge="1" parent="1" source="Dero5Fjb5s4j1B3LeUZW-3" target="Dero5Fjb5s4j1B3LeUZW-18">
          <mxGeometry relative="1" as="geometry" />
        </mxCell>
        <mxCell id="qOB-2drd1Dhv3abfUxcW-7" style="edgeStyle=orthogonalEdgeStyle;rounded=0;orthogonalLoop=1;jettySize=auto;html=1;" edge="1" parent="1" source="Dero5Fjb5s4j1B3LeUZW-3" target="Dero5Fjb5s4j1B3LeUZW-5">
          <mxGeometry relative="1" as="geometry" />
        </mxCell>
        <mxCell id="Dero5Fjb5s4j1B3LeUZW-3" value="n!=1" style="rhombus;whiteSpace=wrap;html=1;" parent="1" vertex="1">
          <mxGeometry x="160" y="310" width="80" height="80" as="geometry" />
        </mxCell>
        <mxCell id="qOB-2drd1Dhv3abfUxcW-8" style="edgeStyle=orthogonalEdgeStyle;rounded=0;orthogonalLoop=1;jettySize=auto;html=1;" edge="1" parent="1" source="Dero5Fjb5s4j1B3LeUZW-5" target="Dero5Fjb5s4j1B3LeUZW-24">
          <mxGeometry relative="1" as="geometry" />
        </mxCell>
        <mxCell id="Dero5Fjb5s4j1B3LeUZW-5" value="j=0" style="rounded=0;whiteSpace=wrap;html=1;" parent="1" vertex="1">
          <mxGeometry x="140" y="430" width="120" height="60" as="geometry" />
        </mxCell>
        <mxCell id="Dero5Fjb5s4j1B3LeUZW-17" style="edgeStyle=orthogonalEdgeStyle;rounded=0;orthogonalLoop=1;jettySize=auto;html=1;" parent="1" source="Dero5Fjb5s4j1B3LeUZW-14" target="Dero5Fjb5s4j1B3LeUZW-16" edge="1">
          <mxGeometry relative="1" as="geometry" />
        </mxCell>
        <mxCell id="Dero5Fjb5s4j1B3LeUZW-14" value="j=0" style="rounded=0;whiteSpace=wrap;html=1;" parent="1" vertex="1">
          <mxGeometry x="-590" y="510" width="120" height="60" as="geometry" />
        </mxCell>
        <mxCell id="Dero5Fjb5s4j1B3LeUZW-22" style="edgeStyle=orthogonalEdgeStyle;rounded=0;orthogonalLoop=1;jettySize=auto;html=1;entryX=0.5;entryY=0;entryDx=0;entryDy=0;" parent="1" source="Dero5Fjb5s4j1B3LeUZW-16" target="Dero5Fjb5s4j1B3LeUZW-21" edge="1">
          <mxGeometry relative="1" as="geometry" />
        </mxCell>
        <mxCell id="Dero5Fjb5s4j1B3LeUZW-16" value="m!=1" style="rhombus;whiteSpace=wrap;html=1;" parent="1" vertex="1">
          <mxGeometry x="-200" y="825" width="100" height="90" as="geometry" />
        </mxCell>
        <mxCell id="Dero5Fjb5s4j1B3LeUZW-18" value="End" style="ellipse;whiteSpace=wrap;html=1;" parent="1" vertex="1">
          <mxGeometry x="330" y="320" width="120" height="80" as="geometry" />
        </mxCell>
        <mxCell id="Dero5Fjb5s4j1B3LeUZW-21" value="i=0" style="rounded=0;whiteSpace=wrap;html=1;" parent="1" vertex="1">
          <mxGeometry x="-250" y="910" width="120" height="60" as="geometry" />
        </mxCell>
        <mxCell id="qOB-2drd1Dhv3abfUxcW-10" style="edgeStyle=orthogonalEdgeStyle;rounded=0;orthogonalLoop=1;jettySize=auto;html=1;entryX=0;entryY=0.25;entryDx=0;entryDy=0;" edge="1" parent="1" source="Dero5Fjb5s4j1B3LeUZW-24" target="qOB-2drd1Dhv3abfUxcW-9">
          <mxGeometry relative="1" as="geometry" />
        </mxCell>
        <mxCell id="qOB-2drd1Dhv3abfUxcW-13" style="edgeStyle=orthogonalEdgeStyle;rounded=0;orthogonalLoop=1;jettySize=auto;html=1;" edge="1" parent="1" source="Dero5Fjb5s4j1B3LeUZW-24" target="qOB-2drd1Dhv3abfUxcW-12">
          <mxGeometry relative="1" as="geometry" />
        </mxCell>
        <mxCell id="Dero5Fjb5s4j1B3LeUZW-24" value="&lt;div&gt;j&amp;lt;m&amp;amp;&amp;amp;&lt;/div&gt;&lt;div&gt;B[j]!=A[i]&lt;/div&gt;" style="rhombus;whiteSpace=wrap;html=1;" parent="1" vertex="1">
          <mxGeometry x="150" y="545" width="100" height="90" as="geometry" />
        </mxCell>
        <mxCell id="Dero5Fjb5s4j1B3LeUZW-26" value="i=i+1" style="rounded=0;whiteSpace=wrap;html=1;" parent="1" vertex="1">
          <mxGeometry x="-190" y="1050" width="120" height="60" as="geometry" />
        </mxCell>
        <mxCell id="Dero5Fjb5s4j1B3LeUZW-34" style="edgeStyle=orthogonalEdgeStyle;rounded=0;orthogonalLoop=1;jettySize=auto;html=1;" parent="1" source="Dero5Fjb5s4j1B3LeUZW-30" edge="1">
          <mxGeometry relative="1" as="geometry">
            <mxPoint x="60" y="440" as="targetPoint" />
            <Array as="points">
              <mxPoint x="-139" y="970" />
            </Array>
          </mxGeometry>
        </mxCell>
        <mxCell id="Dero5Fjb5s4j1B3LeUZW-30" value="i&amp;gt;=n" style="rhombus;whiteSpace=wrap;html=1;" parent="1" vertex="1">
          <mxGeometry x="-300" y="1040" width="80" height="80" as="geometry" />
        </mxCell>
        <mxCell id="Dero5Fjb5s4j1B3LeUZW-36" value="C[k] = A[i]" style="rounded=0;whiteSpace=wrap;html=1;" parent="1" vertex="1">
          <mxGeometry x="140" y="840" width="120" height="60" as="geometry" />
        </mxCell>
        <mxCell id="Dero5Fjb5s4j1B3LeUZW-38" value="k=k+1" style="rounded=0;whiteSpace=wrap;html=1;" parent="1" vertex="1">
          <mxGeometry x="130" y="940" width="120" height="60" as="geometry" />
        </mxCell>
        <mxCell id="qOB-2drd1Dhv3abfUxcW-1" value="i=0" style="rounded=0;whiteSpace=wrap;html=1;" vertex="1" parent="1">
          <mxGeometry x="150" y="220" width="120" height="60" as="geometry" />
        </mxCell>
        <mxCell id="qOB-2drd1Dhv3abfUxcW-4" style="edgeStyle=orthogonalEdgeStyle;rounded=0;orthogonalLoop=1;jettySize=auto;html=1;entryX=0.55;entryY=0.088;entryDx=0;entryDy=0;entryPerimeter=0;" edge="1" parent="1" source="qOB-2drd1Dhv3abfUxcW-1" target="Dero5Fjb5s4j1B3LeUZW-3">
          <mxGeometry relative="1" as="geometry" />
        </mxCell>
        <mxCell id="qOB-2drd1Dhv3abfUxcW-11" style="edgeStyle=orthogonalEdgeStyle;rounded=0;orthogonalLoop=1;jettySize=auto;html=1;" edge="1" parent="1" source="qOB-2drd1Dhv3abfUxcW-9">
          <mxGeometry relative="1" as="geometry">
            <mxPoint x="200" y="520" as="targetPoint" />
            <Array as="points">
              <mxPoint x="414" y="520" />
            </Array>
          </mxGeometry>
        </mxCell>
        <mxCell id="qOB-2drd1Dhv3abfUxcW-9" value="j=j+1" style="rounded=0;whiteSpace=wrap;html=1;" vertex="1" parent="1">
          <mxGeometry x="370" y="575" width="120" height="60" as="geometry" />
        </mxCell>
        <mxCell id="qOB-2drd1Dhv3abfUxcW-14" style="edgeStyle=orthogonalEdgeStyle;rounded=0;orthogonalLoop=1;jettySize=auto;html=1;" edge="1" parent="1" source="qOB-2drd1Dhv3abfUxcW-12" target="Dero5Fjb5s4j1B3LeUZW-36">
          <mxGeometry relative="1" as="geometry" />
        </mxCell>
        <mxCell id="qOB-2drd1Dhv3abfUxcW-12" value="j&amp;lt;m" style="rhombus;whiteSpace=wrap;html=1;" vertex="1" parent="1">
          <mxGeometry x="160" y="700" width="80" height="80" as="geometry" />
        </mxCell>
      </root>
    </mxGraphModel>
  </diagram>
</mxfile>
